<svg xmlns="http://www.w3.org/2000/svg" xmlns:xlink="http://www.w3.org/1999/xlink" width="62.204" height="39.62" viewBox="0 0 62.204 39.62">
  <defs>
    <linearGradient id="a" x1="3.578" y1="44.294" x2="50.12" y2="-2.247" gradientUnits="userSpaceOnUse">
      <stop offset="0" stop-color="#00a8de"/>
      <stop offset="0.2" stop-color="#333391"/>
      <stop offset="0.4" stop-color="#e91388"/>
      <stop offset="0.6" stop-color="#eb2d2e"/>
      <stop offset="0.8" stop-color="#fde92b"/>
      <stop offset="1" stop-color="#009e54"/>
    </linearGradient>
  </defs>
  <g>
    <g>
      <path d="M28.544,28.224c0,5.325-3.567,10.491-12.674,10.491H0V.905H14.911c9.373,0,12.568,4.952,12.568,9.905a8.271,8.271,0,0,1-6.55,8.254C25.669,19.863,28.544,23.165,28.544,28.224ZM6.87,6.124V16.881h6.923c5.379,0,6.656-2.716,6.656-5.325,0-2.823-1.544-5.432-6.656-5.432ZM14.538,33.5c5.06,0,6.924-2.716,6.924-5.911,0-3.249-2.024-5.645-6.551-5.645H6.87V33.5Z" fill="#231f20"/>
      <path d="M31.8,29.022l5.858-2.555c1.225,4.26,4.314,7.668,10.225,7.668,3.887,0,7.508-1.544,7.508-5.485,0-3.674-2.237-4.953-6.39-5.8l-5.272-1.118c-5.964-1.225-9.958-4.42-9.958-10.864C33.768,4.313,39.146,0,47.666,0,54.8,0,60.5,2.929,62.151,9.212L56.72,12.088C55.5,7.722,52.353,5.219,47.347,5.219c-4.154,0-6.923,1.917-6.923,5.112,0,3.088,1.758,4.686,5.858,5.591l5.538,1.172C58.051,18.425,62.2,21.3,62.2,28.011c0,6.5-4.9,11.609-14.591,11.609C38.667,39.62,33.342,35.2,31.8,29.022Z" fill="#231f20"/>
    </g>
    <g>
      <path d="M28.544,28.224c0,5.325-3.567,10.491-12.674,10.491H0V.905H14.911c9.373,0,12.568,4.952,12.568,9.905a8.271,8.271,0,0,1-6.55,8.254C25.669,19.863,28.544,23.165,28.544,28.224ZM6.87,6.124V16.881h6.923c5.379,0,6.656-2.716,6.656-5.325,0-2.823-1.544-5.432-6.656-5.432ZM14.538,33.5c5.06,0,6.924-2.716,6.924-5.911,0-3.249-2.024-5.645-6.551-5.645H6.87V33.5Z" fill="url(#a)"/>
      <path d="M31.8,29.022l5.858-2.555c1.225,4.26,4.314,7.668,10.225,7.668,3.887,0,7.508-1.544,7.508-5.485,0-3.674-2.237-4.953-6.39-5.8l-5.272-1.118c-5.964-1.225-9.958-4.42-9.958-10.864C33.768,4.313,39.146,0,47.666,0,54.8,0,60.5,2.929,62.151,9.212L56.72,12.088C55.5,7.722,52.353,5.219,47.347,5.219c-4.154,0-6.923,1.917-6.923,5.112,0,3.088,1.758,4.686,5.858,5.591l5.538,1.172C58.051,18.425,62.2,21.3,62.2,28.011c0,6.5-4.9,11.609-14.591,11.609C38.667,39.62,33.342,35.2,31.8,29.022Z" fill="url(#a)"/>
    </g>
  </g>
</svg>
