<?xml version="1.0" encoding="UTF-8"?>
<svg id="Layer_2" data-name="Layer 2" xmlns="http://www.w3.org/2000/svg" viewBox="0 0 176.04 160.69">
  <defs>
    <style>
      .cls-1 {
        fill: #a7a9ac;
        stroke-width: 0px;
      }
    </style>
  </defs>
  <g id="Layer_1-2" data-name="Layer 1">
    <g id="lmPgiR">
      <g>
        <path class="cls-1" d="M146.83,108.74c1.66-.41,1.8-1.07,1.07-2.34-3.75-6.47-7.42-12.99-11.11-19.51-1.13-2-1.3-4.03.04-6.01,1.32-1.96,3.18-2.91,5.57-2.73,1.94.15,3.3,1.18,4.23,2.81,8.09,14.11,16.1,28.27,24.3,42.32,2.15,3.69,4.33,7.25,4.92,11.6,1.82,13.52-9.38,26.33-22.96,25.78-18.31-.74-36.61-1.78-54.92-2.72-3.48-.18-5.69-2.58-5.53-5.81.16-3.21,2.67-5.33,6.14-5.18,4.65.19,9.3.45,13.95.54,3.14.07,5.32-1.97,5.45-5.05.04-.93-.27-2-.74-2.83-5.4-9.67-10.86-19.31-16.29-28.97-2.43-4.31-4.86-8.62-7.23-12.97-1.58-2.9-.56-6.37,2.21-7.76,2.74-1.38,5.96-.21,7.53,2.58,5.49,9.76,11.03,19.5,16.53,29.26.62,1.11,1.25,1.62,2.5.87,1.23-.74,1.32-1.5.62-2.75-6.53-11.48-13.02-22.97-19.45-34.51-.59-1.07-.95-2.46-.87-3.67.18-2.62,2.25-4.63,4.72-5.03,2.34-.37,4.46.79,5.81,3.19,1.96,3.5,3.9,7,5.88,10.49,4.39,7.74,8.83,15.46,13.19,23.21.58,1.02,1.09,1.43,2.19.77,1.05-.64,1.6-1.3.86-2.56-2.17-3.72-4.3-7.46-6.42-11.2-3.31-5.84-6.63-11.69-9.9-17.56-1.5-2.7-.55-5.86,2.15-7.49,2.41-1.46,5.83-.82,7.33,1.68,3.59,6.02,7.01,12.14,10.5,18.21,2.55,4.43,5.13,8.85,7.72,13.32Z"/>
        <path class="cls-1" d="M55.76,60.82c3.21-5.7,6.45-11.39,9.6-17.12.28-.5.32-1.62,0-1.88-.96-.79-1.37.14-1.79.89-3.62,6.42-7.23,12.85-10.88,19.25-1.71,3-4.77,3.97-7.5,2.45-2.71-1.52-3.7-4.96-2.11-7.84,5.34-9.65,10.72-19.26,16.11-28.88,3.2-5.71,6.28-11.49,9.67-17.08,7.15-11.8,24.52-15.05,35.25-3.03,2.97,3.33,5.04,7.52,7.26,11.46,6.53,11.61,12.93,23.29,19.38,34.94.71,1.29,1.47,2.56,2.11,3.89,1.48,3.07.3,6.38-2.78,7.92-2.67,1.34-5.71.21-7.29-2.73-2.17-4.05-4.32-8.11-6.49-12.17-.94-1.75-2.42-2.72-4.4-2.81-2.27-.11-4.02.88-5.13,2.83-2.91,5.13-5.76,10.3-8.66,15.43-5.05,8.93-10.13,17.85-15.18,26.79-1.67,2.95-4.58,4.03-7.27,2.64-2.92-1.5-3.92-4.62-2.23-7.68,4.06-7.33,8.24-14.58,12.36-21.88,1.57-2.77,3.08-5.57,4.68-8.33.58-1,.37-1.7-.58-2.18-.93-.47-1.9-.79-2.6.42-1.4,2.46-2.83,4.9-4.22,7.37-5.19,9.19-10.36,18.39-15.56,27.58-1.5,2.65-3.59,3.73-6.1,3.2-2.31-.48-4.13-2.34-4.13-4.86,0-1.43.59-2.99,1.31-4.28,6.06-10.93,12.21-21.82,18.34-32.72.56-.99,1.32-1.94-.26-2.76-1.49-.77-2.25-.06-2.94,1.19-4.65,8.41-9.33,16.81-14.02,25.2-.6,1.08-1.24,2.14-1.93,3.18-1.65,2.49-4.52,3.32-6.92,2.05-2.57-1.36-3.73-4.41-2.43-7.11,1.39-2.86,3.06-5.58,4.58-8.38.9-1.66,1.74-3.35,2.61-5.02.03.02.07.03.1.05Z"/>
        <path class="cls-1" d="M49.47,145.57c-.47,1.63.26,1.93,1.6,1.9,7.25-.18,14.49-.35,21.74-.43,3.33-.04,5.65,2.15,5.78,5.19.13,3.14-2.2,5.68-5.61,5.79-6.89.23-13.78.29-20.67.47-9.89.26-19.8.32-29.67.94-10.81.67-22.07-8.7-22.62-21.16-.2-4.62.97-8.83,3.29-12.81,8.67-14.87,17.28-29.78,25.92-44.66,1.68-2.9,4.87-3.83,7.57-2.29,2.71,1.55,3.49,4.71,1.83,7.68-2.22,3.96-4.45,7.92-6.75,11.83-2.22,3.77.12,8.26,4.48,8.2,6.59-.09,13.19-.38,19.78-.57,9.25-.27,18.49-.57,27.74-.77,3.28-.07,5.65,2.13,5.74,5.01.11,3.29-2.24,5.73-5.75,5.85-10.37.33-20.73.61-31.1.92-.77.02-1.53.12-2.3.11-1.06-.01-1.91.13-1.8,1.5.1,1.27.5,2.04,2.05,1.99,12.89-.41,25.79-.75,38.69-1.12,3.02-.09,5.35,1.21,6.15,3.51.8,2.33.13,4.95-1.93,6.29-1.03.67-2.39,1.1-3.62,1.14-12.48.41-24.97.72-37.46,1.05-2.14.06-2.68.71-1.81,2.49.2.42.95.82,1.44.81,9.72-.19,19.44-.45,29.16-.69.94-.02,1.88-.06,2.82-.08,3.18-.07,5.74,2.22,5.82,5.19.09,3.25-2.09,5.69-5.38,5.79-6.3.2-12.61.28-18.91.44-5.4.14-10.81.34-16.21.51Z"/>
      </g>
    </g>
  </g>
</svg>