<?xml version="1.0" encoding="UTF-8"?>
<svg id="Layer_2" data-name="Layer 2" xmlns="http://www.w3.org/2000/svg" viewBox="0 0 222.5 200">
  <defs>
    <style>
      .cls-1 {
        fill: #000;
        stroke-width: 0px;
      }
    </style>
  </defs>
  <g id="Layer_2-2" data-name="Layer 2">
    <g>
      <path class="cls-1" d="M64.07,163.88h49.53c3.64,0,6.9-2.61,7.34-6.23.53-4.33-2.84-8.01-7.07-8.01h-50.3c-.82,0-1.62-.49-1.87-1.27-.41-1.3.55-2.5,1.79-2.5h42.99c3.64,0,6.9-2.61,7.34-6.23.53-4.33-2.84-8.01-7.07-8.01h-58.38c-5.23-.01-8.56-5.59-6.09-10.2l7.5-13.98c.97-1.38,1.46-3.12,1.22-4.98-.39-3.07-2.82-5.61-5.87-6.11s-6.14,1.03-7.53,3.54L3.75,158.53c-10.64,18.43,2.66,41.47,23.94,41.47h64.26c4.47,0,7.99-4.24,6.94-8.86-.74-3.27-3.83-5.47-7.18-5.47-7.33,0-23.93,0-28.15,0-.82,0-1.62-.49-1.87-1.27-.41-1.3.55-2.5,1.79-2.5h42.99c3.64,0,6.9-2.61,7.34-6.23.53-4.33-2.84-8.01-7.07-8.01h-42.6c-.82,0-1.62-.49-1.87-1.27-.41-1.3.55-2.5,1.79-2.5Z"/>
      <path class="cls-1" d="M132.03,109.08l25.14,43.54c.47.81.35,1.89-.38,2.48-.93.76-2.27.48-2.84-.51l-21.48-37.21c-1.95-3.38-6.25-4.82-9.68-2.97s-4.8,6.36-2.8,9.83l29.18,50.57c2.61,4.53-.55,10.2-5.77,10.37l-15.85.5c-1.68-.14-3.43.3-4.93,1.43-2.46,1.87-3.45,5.24-2.35,8.14,1.14,3,3.97,4.8,6.84,4.75h67.71c21.28,0,34.59-23.04,23.94-41.47l-32.14-55.65c-2.12-3.68-7.13-4.7-10.61-2.03-2.87,2.2-3.47,6.32-1.66,9.45l14.04,24.31c.47.81.35,1.89-.38,2.48-.93.76-2.27.48-2.84-.51l-21.48-37.21c-1.95-3.38-6.25-4.82-9.68-2.97s-4.8,6.36-2.8,9.83l21.29,36.87c.47.81.35,1.89-.38,2.48-.93.76-2.27.48-2.84-.51l-24.75-42.87c-1.95-3.38-6.25-4.82-9.68-2.97-3.55,1.91-4.8,6.36-2.8,9.83Z"/>
      <path class="cls-1" d="M169.01,72.51l-33.82-58.67c-10.63-18.45-37.25-18.45-47.9-.01l-32.15,55.7c-2.12,3.68-.5,8.53,3.55,10.21,3.34,1.39,7.2-.15,9.01-3.29l14.04-24.31c.47-.81,1.46-1.25,2.34-.91,1.12.42,1.55,1.72.98,2.71l-21.48,37.21c-1.95,3.38-1.05,7.82,2.27,9.87s7.91.97,9.91-2.49l21.29-36.87c.47-.81,1.46-1.25,2.34-.91,1.12.42,1.55,1.72.98,2.71l-24.75,42.87c-1.95,3.38-1.05,7.82,2.27,9.87s7.91.97,9.91-2.49l25.14-43.54c.47-.81,1.46-1.25,2.34-.91,1.12.42,1.55,1.72.98,2.71l-21.48,37.21c-1.95,3.38-1.05,7.82,2.27,9.87s7.91.97,9.91-2.49l29.2-50.56c2.61-4.53,9.11-4.63,11.86-.18l8.36,13.48c.71,1.53,1.97,2.82,3.7,3.55,2.85,1.2,6.27.37,8.22-2.03s2.17-5.84.7-8.3Z"/>
    </g>
  </g>
</svg>
