<?xml version="1.0" encoding="UTF-8"?>
<svg id="Layer_1" data-name="Layer 1" xmlns="http://www.w3.org/2000/svg" version="1.1" viewBox="0 0 353.3 513.1">
  <defs>
    <style>
      .cls-1 {
        fill: #231f20;
        stroke-width: 0px;
      }
    </style>
  </defs>
  <path class="cls-1" d="M164.2,390.1c0-11,.4-22,0-33-.9-20.6-2.8-41.1-3.5-61.7-1.2-37.5.6-75.1-4.6-112.5-3.8-27.3-6.9-54.7-9.8-82-1.2-11.3-.8-22.7-1.9-34-1.5-14.7-3.7-29.4-6-44.1-1.5-9.6,7.9-20.2,17.1-22.4,10.3-2.4,21.2,5.9,25.2,15.2,5.5,12.9,3.2,25.9,4.1,39,2,28.1,5.4,56.2,8.2,84.2,1.3,12.2,2.9,24.4,4,36.6,2,22.6,4.1,45.2,5.3,67.9,1,19.3.5,38.7,1.3,58,.9,21.9,2.1,43.8,3.7,65.7,1.2,16.1,3.2,32.2,4.5,48.3.4,5.6,4.2,11.7,7.1,15.6,3.2-3.4,12.1-16.3,13.4-20.2,8.7-27,14.5-30.6,21.5-58.1,3.8-14.8,7.7-29.1,15.9-41.9,3.9-6.1,9-11.4,12.7-17.6,5.9-9.9,11.3-20.1,16.5-30.4,4.6-9.1,7.7-19,13.3-27.4,3.7-5.5,9.2-9.6,15.4-11.7,7.1-2.1,12.4,3.9,16.6,9.6,8,11,10.3,23.6,6.6,36.1-3.3,11.4-8.3,22.3-14.7,32.4-10.3,15.8-23.6,29.8-33.3,45.9-7.7,12.8-13,27.4-17.2,41.8-7,24.5-12.1,49.6-18.5,74.3-1.4,5.8-4.1,11.2-7.9,15.8-9.3,10.9-19.2,21.3-29.7,31-2.8,2.6-9.5,3.2-13.5,1.9-8.3-2.7-17.2-5.3-21.5-14.4-2-4.2-3.1-9.2-6.1-12.4-13.7-14.7-28.3-28.5-41.8-43.4-9.2-10-17.4-20.7-24.7-32.2-12.4-20.2-27.4-36.8-48.2-49.1-16.7-9.8-31.4-23-47-34.8-5-3.8-9.8-7.7-14.6-11.7-9.4-7.8-14.1-19-12.9-30.1.9-8.4,6.3-18,12.7-23.9,10.7-9.8,28-5.1,35.5,9.6,6.1,12,15.5,18.9,26.4,25.1,4,2.2,7.3,5.5,11,8.2,5.7,4.2,11.1,8.9,17.1,12.4,16.9,10,28.8,24.8,39.2,40.9,7.2,11,13.4,22.7,20.1,34l3.1-.7Z"/>
</svg>