<svg xmlns="http://www.w3.org/2000/svg" width="446.576" height="447.057" viewBox="0 0 446.576 447.057">
  <path d="M260.755,260.981c-11.976,0-21.8.45-31.578-.09-22.614-1.251-45.194-3.108-67.8-4.487-38.8-2.366-77.607-4.542-116.409-6.827-7.817-.461-15.7-.546-23.421-1.7-12.938-1.933-16.7-6.145-19.188-19.24-.333-1.754-1.714-3.317-2-5.068-.8-4.882-.685-10.12,5.018-11.639,7.24-1.927,14.815-3.918,22.194-3.742,20.3.484,40.586,1.824,60.843,3.3,38.3,2.788,76.564,6.138,114.877,8.747,11.4.776,22.92-.079,34.383-.3,15.881-.3,31.769-.507,47.639-1.15,9.777-.4,19.524-1.532,29.285-2.335l.459-2.067c-1.841-1.084-3.556-2.593-5.544-3.182-13.235-3.92-26.967-6.554-39.7-11.678-20.972-8.438-42.179-16.975-61.555-28.406C198.4,165.3,190.68,154,184.9,143.56c-8.832-15.956-15.2-33.291-15.642-52.073a26.828,26.828,0,0,0,.027-3.905c-5.41-31.071,7.087-52.635,34.12-67.827,13.072-7.347,27.035-10.887,41.129-14.53,25.235-6.524,50.5-7.695,75.618.862,11.824,4.028,23.14,9.317,30.4,19.747,3.84,5.518,5.422,12.683,7.615,19.241,1.134,3.389,2.553,7.355,1.788,10.572-1.809,7.61-3.873,15.476-7.66,22.212-3.906,6.949-9.713,12.92-15.148,18.9-11.7,12.87-27.344,15.177-42.315,6.761-8.68-4.88-16.755-9.822-20.948-19.948-4.513-10.9-.02-22.549,11.59-24.3,6.211-.936,12.756.585,19.123.323,2.581-.106,5.919-1.392,7.335-3.307.918-1.242-.281-5.885-1.814-6.762-4.883-2.8-10.235-5.953-15.64-6.458-29.962-2.794-57.123,5.21-80.058,24.714-4.224,3.592-6.443,11.674-6.468,17.7-.1,23.879,10.067,42.275,30.938,55.064,17.876,10.953,37.337,17.415,57.16,23.181,24.037,6.992,48.116,13.861,72.307,20.293,4.749,1.263,10.164-.228,15.145.464,8.844,1.227,17.631,2.966,26.365,4.846a156.873,156.873,0,0,1,20.244,5.386c5.072,1.829,11.583,3.789,14.044,7.789,3.85,6.257,2.99,13.983-1.773,20.653-1.557,2.181-1.979,5.171-3.217,8.619-6.691-.08-9.189,5.292-12.795,11.175-6.062,9.89-17.162,10.447-27.9,10.64-6.117.11-12.584.272-18.256,2.243-23.367,8.121-46.77,16.277-69.569,25.83a79.6,79.6,0,0,0-25.45,17.549,172.962,172.962,0,0,0-25.129,32.535c-8.657,14.679-4.914,29.867,3.3,43.924,13.585,23.25,32.3,31.243,58.207,23.956a97.282,97.282,0,0,0,24.517-11.236c3.321-2.062,4.486-7.6,6.63-11.555-4.026-2.091-8.652-6.647-11.973-5.838-12.971,3.158-18.585-8.65-28.06-12.218-1.437-.541-3.318-2.775-3.21-4.079.7-8.452.7-17.284,3.455-25.1,1.253-3.552,8.077-6.6,12.734-7.228,17.207-2.339,33.195,2.275,48.436,10.373,17.213,9.147,25,23.529,25.23,42.6.144,11.735,1.547,23.956-6.139,33.9-4.5,5.821-10.436,10.8-16.469,15.117-25.355,18.156-53.188,25.906-84.684,21.469-37.84-5.33-58.525-28.5-70.318-62.659-8.641-25.033-9.644-50.216,2.582-73.644,7.844-15.03,20.2-27.708,30.562-41.419C256.375,266.116,258.052,264.243,260.755,260.981Z" fill="#231f20"/>
</svg>
