<?xml version="1.0" encoding="utf-8"?>
<!-- Generator: Adobe Illustrator 25.0.1, SVG Export Plug-In . SVG Version: 6.00 Build 0)  -->
<svg version="1.1" id="Layer_1" xmlns="http://www.w3.org/2000/svg" xmlns:xlink="http://www.w3.org/1999/xlink" x="0px" y="0px"
	 viewBox="0 0 513.1 353.3" style="enable-background:new 0 0 513.1 353.3;" xml:space="preserve">
<style type="text/css">
	.st0{fill:#231F20;}
</style>
<path class="st0" d="M122.4,191.2c11.4,6.7,23,12.9,34,20.1c16,10.4,30.9,22.3,40.9,39.2c3.6,6,8.2,11.4,12.4,17.1
	c2.7,3.7,6,7.1,8.2,11c6.2,10.9,13.1,20.3,25.1,26.4c14.7,7.4,19.4,24.8,9.6,35.5c-5.8,6.4-15.4,11.7-23.9,12.7
	c-11.1,1.2-22.3-3.5-30.1-12.9c-4-4.8-7.9-9.6-11.7-14.6c-11.8-15.5-25-30.3-34.8-47c-12.3-20.8-28.9-35.8-49.1-48.2
	c-11.4-7.2-22.2-15.5-32.2-24.7c-14.9-13.4-28.7-28.1-43.4-41.8c-3.2-3-8.2-4.1-12.4-6.1C6,153.6,3.3,144.7,0.7,136.4
	c-1.3-4-0.7-10.7,1.9-13.5c9.7-10.5,20-20.4,31-29.7c4.6-3.8,10-6.4,15.8-7.9c24.7-6.4,49.8-11.4,74.3-18.5
	c14.4-4.1,29-9.5,41.8-17.2c16.2-9.7,30.1-23,45.9-33.3c10-6.4,20.9-11.3,32.4-14.7C256.3-2,269,0.3,279.9,8.3
	c5.6,4.1,11.7,9.4,9.6,16.6c-2.1,6.3-6.2,11.7-11.7,15.4c-8.4,5.5-18.4,8.7-27.4,13.3c-10.3,5.2-20.5,10.6-30.4,16.5
	c-6.2,3.7-11.5,8.8-17.6,12.7c-12.8,8.2-27.2,12.1-41.9,15.9c-27.5,7-31.1,12.8-58.1,21.5c-4,1.3-16.9,10.2-20.2,13.4
	c4,2.9,10,6.6,15.6,7.1c16.1,1.3,32.2,3.4,48.3,4.5c21.9,1.6,43.8,2.8,65.7,3.7c19.3,0.8,38.7,0.3,58,1.3
	c22.6,1.2,45.3,3.3,67.9,5.3c12.2,1.1,24.4,2.7,36.6,4c28.1,2.9,56.1,6.2,84.2,8.2c13.1,0.9,26.1-1.4,39,4.1
	c9.3,4,17.7,14.9,15.2,25.2c-2.2,9.2-12.8,18.6-22.4,17.1c-14.7-2.3-29.3-4.5-44.1-6c-11.3-1.2-22.7-0.7-34-1.9
	c-27.4-2.9-54.8-6-82-9.8c-37.4-5.2-75-3.4-112.5-4.6c-20.6-0.7-41.1-2.6-61.7-3.5c-11-0.5-22-0.1-33-0.1L122.4,191.2z"/>
</svg>
