<svg xmlns="http://www.w3.org/2000/svg" width="558.043" height="736.53" viewBox="0 0 558.043 736.53">
  <path d="M404.03,673.53c-8.643-6.861-18.62-11.8-24.213-19.821a127,127,0,0,1-22.854-63.6c-1.1-14.93-.187-30.022.049-45.038.276-17.521,11.014-29.057,22.432-40.645,14.358-14.571,32.109-21.611,51.392-25.182a77.962,77.962,0,0,1,26.444-.656c22.574,3.747,44.222,9.3,63.4,24.012,17.687,13.571,30.427,29.883,35.1,50.954,3.02,13.618,2.769,28.676.685,42.589-4.574,30.527-18.091,56.737-41.117,78.15a214.937,214.937,0,0,1-106.075,54.048c-29.676,5.883-60.407,11.941-90.946,5.277-39.4-8.6-73.317-27.285-98.417-59.958-18.437-24-37.318-47.713-54.544-72.576-11.027-15.916-23.639-31.756-23.419-53.105.069-6.767-4.736-6.924-9.942-5.7-21.969,5.175-44.015,10.033-65.922,15.462-20.674,5.124-41.21-13.464-37.462-34.316,2-11.1,19.167-23.639,33.271-25.847,19.887-3.113,39.6-7.319,59.408-10.978,6.686-1.235,8.616-4.761,7.093-11.481-7.192-31.736-11.541-63.782-10.1-96.478.395-8.97-6.949-8.458-12.855-8.612-25.229-.657-50.476-.81-75.693-1.767C12.894,367.621-.661,352.136.025,335.488.57,322.262,13.574,310.982,26.709,309.5c28.34-3.2,55.969,3.7,83.992,4.556,7.973.242,12.031-2.069,13.6-10.59,6.921-37.5,14.784-75.068,30.631-109.74,14.385-31.473,33.171-60.88,49.047-91.7,19.371-37.608,52.141-61.007,86.2-82.494C300.6,12.961,314.855,12.4,327.45,9.522c11.293-2.578,22.67-4.877,34.1-6.72,22.38-3.61,44.844-4.616,66.772,2.4A384.287,384.287,0,0,1,467.95,20.132c21.83,9.754,29.744,30.3,36.778,51.059,14.4,42.481,5.591,83.225-10.087,123.2-3.747,9.553-9.763,18.19-13.753,27.666-5.9,14.019-17.45,22.412-29.907,28.269-31.449,14.789-64.844,21.378-99.746,18.87-10.866-.781-22.089.082-32.534-2.41-16.911,2.6-55.166-35.184-52.149-45.28,1.7-33.39,6.282-65.881,23.363-95.687,10-17.449,25.988-26.843,42.066-36.59a240.581,240.581,0,0,1,21.638-11.837c7.244-3.431,14.112-3.114,22.62-1.141,17.831,4.134,29.708,15.861,43.221,26.222,17.323,13.283,14.052,44.564-1.709,53.944-4.928,2.933-11.659,3.237-17.655,3.836-15.109,1.51-24.791-7.057-33.513-18.186-1.966-2.509-8.066-3.828-11.4-2.817-17.8,5.4-44.269,42.721-36,67.874,2.428,7.381,6.124,11.687,13.3,12.817,29.026,4.572,57.586,3.912,84.919-8.595,14.513-6.641,22.642-19.4,28.852-33.006,11.714-25.666,17.858-52.875,11.843-80.9-2.357-10.983-9.983-20.834-15.314-31.145-.58-1.121-1.737-2.49-2.832-2.71-22.5-4.512-43.276-16.394-68.395-7.993-22.043,7.372-46.006,8.871-69.044,13.366-4.4.858-9.263,2.671-12.5,5.616-13.47,12.263-28.4,23.663-38.916,38.217-9.027,12.5-13.917,28.491-18.641,43.57-14.222,45.4-21.859,92.212-27.352,139.4-1.822,15.659-.222,18.453,16,18.135,30.549-.6,61.121-1.77,91.591-3.982,14.4-1.045,28.623-4.841,42.843-7.8,6-1.248,11.683-4.6,17.683-5.179,18.28-1.763,29.879,10.127,28.771,28.709-.445,7.46-.991,14.927-1.881,22.343-1.426,11.879-22.725,27.733-33.566,23.649-28.291-10.658-57.176-3.849-85.773-4.262-20.207-.291-40.438.943-60.655,1.617-4.97.166-9.919.939-14.89,1.192-6.158.313-8.794,3.485-9.023,9.587-.864,23.055-2.029,46.1-2.845,69.153-.307,8.651,3.379,12,11.626,9.31,25.479-8.325,50.717-17.39,76.09-26.047,8.631-2.945,17.218-6.441,26.117-8.084,17.419-3.213,35.281,12.227,34.954,29.9-.156,8.418.246,17.724-3.073,25.035-8.872,19.542-23.067,25.316-44.345,24.4-15.618-.675-31.491,1.162-47.035,3.395a149.235,149.235,0,0,0-33.6,8.961c-19.912,7.913-20.591,8.12-17.91,30.334,1.2,9.973,4.825,20.76,10.564,28.879,24.565,34.756,49.472,68.652,87.846,91.019,35.042,20.423,69.8,20.017,106.519,10.048C401.949,675.842,402.572,674.832,404.03,673.53Zm39.334-21.611c3.43,0,4.575.357,5.282-.052,33.753-19.478,41.27-47.763,19.921-80.332-15.713-18.346-49.364.977-34.319,22.7C448.9,611.971,453.2,630.469,443.364,651.919Z" fill="#231f20"/>
</svg>
