<svg xmlns="http://www.w3.org/2000/svg" width="268.79" height="304.282" viewBox="0 0 268.79 304.282">
  <path d="M.624,141.394c0-9.024-1.53-18.39.39-26.985A123.664,123.664,0,0,1,12.8,83.743c11.951-22.449,26.028-43.625,48.107-57.5C84.237,11.578,109.229.208,137.327,0c13.426-.1,27.085,2.477,40.273,5.457,21.738,4.911,42.717,12.124,62.615,22.667,11.289,5.981,15.629,22.252,9.918,30.285-3.892,5.473-9.208,11.78-17.066,12.392-3.624.282-9.037-.444-10.878-2.836-11-14.293-27.492-17.187-43.036-22.154-6.69-2.138-13.354-4.616-20.225-5.891C124.4,33.514,94.365,41.566,69.335,67.276c-12.006,12.332-22.224,25.591-26.67,42.237-4.18,15.649-8.207,31.847-5.194,48.014,2.127,11.416,7.3,22.308,11.55,33.266,2.159,5.572,5.765,10.59,7.861,16.179,6.615,17.636,18.545,30.3,34.042,40.771,11.85,8,22.993,16.916,37.555,19.113,27.649,4.173,51.688-3.921,71.676-23.121,8.764-8.418,17.728-17.285,23.879-27.576,5.908-9.883,9.789-21.609,11.782-33.011,1.748-10,.028-20.713-.854-31.052-1.144-13.415-8.269-23.3-20.1-29.455-2.95-1.535-6.771-1.475-10.219-1.955-2.742-.381-5.552-.292-8.285-.715-8.591-1.33-16.805-2.049-25.142,2.39-12.8,6.812-24.54,14.516-32.678,26.887-3.074,4.673-2.546,8.78.235,13.409a143.084,143.084,0,0,1,10.258,19.4c3.141,7.712,9.942,13.549,12.058,21.62.583,2.226-3.346,10.134-4.843,11.3-2.027,1.579-9.449,4.584-11.945,3.874-11.5-3.267-19.21-13.065-28.053-21.213a10.443,10.443,0,0,1-2.186-2.042c-9.253-16.156-18.027-32.736-15.321-52.1,2.022-14.476,9.548-26.5,20.954-35.935,3.473-2.873,6.282-6.617,9.945-9.177a153.112,153.112,0,0,1,15.923-9.32c5.653-3.007,11.265-6.354,17.3-8.318,7.387-2.406,15.14-4.5,22.831-4.908a44.023,44.023,0,0,1,19.1,3.371,290.213,290.213,0,0,1,36.22,18.243c15.934,9.7,22.347,26.412,25.423,43.41,2.719,15.021,2.413,30.711,2.278,46.1a65.344,65.344,0,0,1-16.53,42.929c-14.582,16.734-28.595,34.448-45.523,48.531-22.4,18.639-49.379,27.114-79.313,25.719-23.26-1.085-41.02-12.851-58.544-26.056-3.312-2.5-7.565-3.728-10.939-6.161-13.095-9.444-21.881-22.5-29.282-36.506Q18.474,216.3,9.208,196.739C1.509,180.582.166,163.173,0,145.6c-.013-1.4.156-2.8.241-4.2Z" fill="#231f20"/>
</svg>
