<svg xmlns="http://www.w3.org/2000/svg" width="280.926" height="267.534" viewBox="0 0 280.926 267.534">
  <path d="M135.948,232.055c12.336,1.061,23.954-1.636,34.938-6.867a237.5,237.5,0,0,0,24.421-12.832,276.947,276.947,0,0,0,28.316-20.094c4.159-3.41,6.373-9.106,9.805-13.5,6.007-7.7,5.375-15.433,2.108-24.18-2.633-7.049-3.155-14.861-4.951-22.253-2.087-8.594-4.545-17.015-11.191-23.573-10.933-10.79-23.792-17.2-39.19-18.439-5.379-.432-10.781-1.96-16.089-1.633-13.192.813-26.348,1.086-38.805,7.524-7.232,3.738-13.942,7.493-19.569,13.338-2.47,2.567-3.664,5.569-2.956,8.748,2.607,11.719,5.155,23.483,8.578,34.976,1.975,6.627,4.721,7.095,11.077,4.611,10.022-3.918,17.758-10.65,23.767-19.338,8.161-11.8,29.146-12.157,37.27-1.955,5.1,6.41,8.719,12.766,6.6,21.428-1.045,4.269-3.438,6.951-7.13,8.184-11.235,3.752-20.331,11.019-30.165,17.182-8.982,5.628-18.026,11.478-29.574,11.6-6.466.068-12.8.493-18.848-1.943-13.324-5.366-22.247-14.257-28.465-27.97-5.735-12.647-13.092-43.5-12.427-45.747-2.4-9.907-1.854-21.3,6.41-28.157,5.7-4.733,11.08-9.849,16.753-14.615,8.092-6.8,17.815-10.951,27.539-14.28,12.911-4.42,26.086-8.356,40.117-8.405,13.267-.046,26.317.959,39.039,4.721,8.059,2.383,15.809,6.055,23.989,7.718,9.684,1.968,17.815,7.04,26.216,11.425,5.089,2.656,8.785,7.865,13.423,11.528,6.723,5.31,13.466,40.818,17.642,50.458,2.781,6.416,8.03,24.338,5.79,39.469s-21.592,33.232-34.956,43.716a248.444,248.444,0,0,1-27.559,19.272c-7.716,4.525-15.214,9.469-23.229,13.516-8.979,4.534-18.126,8.471-28.363,9.31-7.744.635-15.436,1.945-23.184,2.486-3.9.273-7.868-.574-11.813-.767-3.17-.154-6.388.219-9.521-.165-18.605-2.281-35.344-9.31-49.295-21.754-6.758-6.028-12.412-13.432-17.9-20.716C46.372,213.2,38.6,202,30.98,190.711c-4.232-6.268-7.755-13.013-11.672-19.5-3.076-5.091-6.353-10.062-9.378-15.183-1.922-3.254-4.066-6.517-5.2-10.066C1.679,136.457,0,116.629,0,116.629,2.093,90.835,6.723,73.522,17.176,54.766c12.134-9.79,22.916-21.346,36.831-28.83,8.916-4.794,17.824-9.3,27.907-11.789,10.919-2.695,21.313-7.493,31.973-11.267a46.535,46.535,0,0,1,9.8-2.755c9.021-1.07,15.949,4.81,16.824,13.945,1.095,11.437-2.682,20.353-11.914,27.867-7.5,6.1-15.777,7.055-24.517,7.611-7.175.457-14.344.141-21.09,3.66C71.053,59.434,56.555,66.643,49.3,78.17c-1.454,2.311-6.638,26.994-8.538,36.609-2.808,14.21,5.39,27.6,12.327,39.644,6.3,10.941,12.753,21.821,19.715,32.347,6.728,10.171,13.479,20.492,21.565,29.546,6.155,6.891,13.95,12.538,24.046,13.624C124.272,230.57,135.9,232.507,135.948,232.055Z" fill="#231f20"/>
</svg>
