<svg xmlns="http://www.w3.org/2000/svg" width="217.966" height="241.509" viewBox="0 0 217.966 241.509">
  <path d="M88.331,94.4c-13.734-.508-26.013,5-37.662,10.922-4.516,2.294-7.287,9.338-9.4,14.782-4.967,12.777-8.189,25.926-6.593,39.991,2.215,19.534,16.761,36.166,32.83,42.353,20.516,7.9,39.165,1.111,56.741-7.071,29.314-13.648,45.784-39.006,55.843-68.948,3.739-11.128-.255-21.18-6.362-29.537-9.4-12.869-19.211-26-31.2-36.278-14.365-12.317-31.111-21.932-50.689-24.593-11.6-1.576-18.669-8.9-23.02-19.042C65.844,10.048,71.953.671,79.534.147c12.886-.891,25.128,2.364,36.931,7.022C153.214,21.67,180.507,47.6,202.846,79.4c3.672,5.228,8.529,9.947,10.9,15.7,5.67,13.752,5.007,28.215,1.646,42.47-5.357,22.719-18.973,41.125-30.985,60.576-10.169,16.467-26.5,22.58-42.092,30.066a133.839,133.839,0,0,1-64.31,13.156,51.151,51.151,0,0,1-25.133-8.666c-22.556-15.349-41.564-34.2-49.273-61.6C-.536,156.4-1.4,141.3,2.546,126.512A329.825,329.825,0,0,1,15.623,87.224c3.518-8.639,10.956-14.138,20.192-16.8,10.97-3.158,21.858-6.6,32.86-9.643,2.408-.666,5.144-.248,7.725-.17,8.168.247,16.51-.388,24.46,1.08a60.827,60.827,0,0,1,32.8,17.52c5.36,5.5,9.587,12.214,13.778,18.732,7.11,11.054,6.308,33.072,2.874,44.433-6.509,21.534-23.313,32.167-42.129,39.925-5.168,2.131-13.216,0-18.925-2.5-10.36-4.535-21.014-9.719-25.816-21.182-3.706-8.845-7.942-18.015-5.157-27.78,1.221-4.279,4.679-9.877,8.355-11.069,6.59-2.136,14.688-2.617,19.951,3.836,3.416,4.189,5.542,9.441,8.161,14.262,1.169,2.153,2.415,6.392,3.136,6.288,2.992-.431,6.593-1.446,8.494-3.569A51.756,51.756,0,0,0,114.4,128c4.584-9.822-5.426-31.7-17.042-33.171C94.377,94.451,91.341,94.528,88.331,94.4Z" fill="#231f20"/>
</svg>
