<svg xmlns="http://www.w3.org/2000/svg" width="513.145" height="353.32" viewBox="0 0 513.145 353.32">
  <path d="M390.062,188.119c-11,0-22.013-.406-32.989.088-20.574.925-41.11,2.845-61.688,3.5-37.507,1.188-75.1-.6-112.478,4.625-27.269,3.814-54.652,6.857-82.033,9.794-11.274,1.209-22.725.756-34.006,1.924-14.744,1.525-29.429,3.717-44.082,5.989C13.219,215.52,2.6,206.107.43,196.948c-2.441-10.294,5.9-21.242,15.247-25.205,12.894-5.467,25.913-3.167,38.968-4.09,28.13-1.99,56.164-5.356,84.229-8.235,12.2-1.252,24.367-2.932,36.585-4,22.6-1.966,45.209-4.067,67.858-5.268,19.317-1.024,38.709-.542,58.044-1.312,21.913-.871,43.816-2.149,65.691-3.715,16.129-1.155,32.19-3.246,48.313-4.52,5.65-.447,11.663-4.189,15.645-7.05-3.371-3.162-16.258-12.1-20.236-13.387-27.018-8.737-30.616-14.479-58.106-21.5-14.756-3.767-29.085-7.711-41.927-15.906-6.073-3.876-11.384-8.977-17.554-12.663C283.3,64.2,273.094,58.788,262.816,53.576c-9.065-4.6-19.01-7.73-27.416-13.26A30.568,30.568,0,0,1,223.667,24.87c-2.143-7.124,3.911-12.44,9.552-16.552C244.176.332,256.806-2.008,269.348,1.751a126.847,126.847,0,0,1,32.367,14.656c15.842,10.286,29.774,23.614,45.933,33.281,12.817,7.668,27.4,13.042,41.843,17.183C414.02,73.9,439.116,78.94,463.837,85.342a40.449,40.449,0,0,1,15.82,7.864,352.7,352.7,0,0,1,30.958,29.682c2.59,2.838,3.152,9.486,1.867,13.5-2.654,8.277-5.339,17.22-14.427,21.467-4.188,1.957-9.167,3.083-12.394,6.084-14.709,13.68-28.538,28.318-43.448,41.765a224.679,224.679,0,0,1-32.166,24.686c-20.175,12.429-36.832,27.414-49.1,48.23-9.842,16.7-23.023,31.43-34.8,46.977-3.763,4.969-7.7,9.809-11.681,14.608-7.826,9.437-19,14.14-30.11,12.934-8.436-.916-18.03-6.3-23.864-12.661-9.824-10.719-5.114-28.046,9.595-35.48,12-6.062,18.92-15.476,25.129-26.395,2.247-3.952,5.484-7.336,8.214-11.02,4.195-5.66,8.851-11.055,12.414-17.093,10-16.936,24.815-28.78,40.853-39.221,11.032-7.182,22.678-13.419,34.049-20.078Z" fill="#fff"/>
</svg>
