<svg xmlns="http://www.w3.org/2000/svg" width="113.112" height="102.599" viewBox="0 0 113.112 102.599">
  <path d="M0,63.186c4.423-10.562,5.246-23.941,16.644-32.3,1.774-1.3,3-3.431,4.274-5.315,2.037-3.006,3.931-6.109,5.833-9.2,1.787-2.907,3.134-6.187,5.364-8.688A20.733,20.733,0,0,1,39.71,2.215C48.955-1.379,58.723.433,68.223.635c9.19.195,15.624,6.456,21.87,12.554a21,21,0,0,0,6.385,4.373c7.724,3.213,13.827,7.985,16.173,16.3a11.028,11.028,0,0,1-.286,7.193,218.418,218.418,0,0,1-11.478,20.919,27.835,27.835,0,0,1-8.5,8.737,26.258,26.258,0,0,0-8.5,8.581c-6.1,9.368-15.273,15.71-25.153,19.74-8.256,3.367-17.6,5.6-26.908.815C26.3,97.009,19.973,95.779,14.2,93.35,5.249,89.582,4.44,80.519,1.729,72.826.8,70.2.7,67.286,0,63.186Z" fill="#fff"/>
</svg>
