<svg xmlns="http://www.w3.org/2000/svg" width="482.668" height="505.58" viewBox="0 0 482.668 505.58">
  <path d="M199.721,128.6c5.187-12.657,11.31-27.9,17.667-43.039,10.549-25.128,21.043-50.284,32.092-75.192,1.807-4.075,6.337-6.941,9.608-10.366,3.7,3.9,9.323,7.187,10.771,11.791,6.877,21.88,11.24,44.627,19.181,66.071,6.846,18.486,17.292,35.641,26.179,53.367,2.918,5.821,5.491,11.89,9.082,17.272,2.192,3.286,5.622,6.975,9.18,7.928,35.634,9.539,71.506,18.2,107.092,27.9,11.962,3.263,23.554,8.268,34.843,13.5,9.363,4.335,9.513,13.924,1.3,20.433a89.568,89.568,0,0,0-7.3,7.149C451,243.829,432.517,262.186,414.186,280.7c-16.369,16.527-32.953,32.877-48.5,50.153-2.936,3.264-3.472,11.314-1.689,15.791,17.264,43.371,28.813,88.483,41.738,133.181,1.252,4.331,3.765,8.281,5.285,12.553,1.742,4.894,1.952,9.829-3.757,12.362-5.27,2.339-9.01-.444-10.967-5.093-10.144-24.094-31.977-34.957-52.584-47.512-19.111-11.644-37.7-24.147-56.444-36.39-15.45-10.091-30.571-20.708-46.279-30.375-6.644-4.089-14.671-5.629-21.674-.212-19.7,15.238-39.075,30.9-58.777,46.139-16.988,13.138-34.066,26.174-51.466,38.754a213.162,213.162,0,0,1-28.244,17.447c-3.85,1.954-10.493,2.394-13.884.307-4.827-2.973-2.785-8.579-.551-13.751,8.111-18.773,14.541-38.338,23.586-56.624,11.427-23.105,24.6-45.359,37.4-67.767,7.176-12.566,15.015-24.761,22.748-37,3.02-4.78,1.317-7.275-3.318-9.022-10.354-3.9-20.625-8.039-31.047-11.751q-46.478-16.557-93.068-32.8c-4.529-1.578-9.683-1.607-13.945-3.625-3.5-1.655-7.584-4.742-8.612-8.062-.794-2.56,2.073-7.115,4.5-9.644,6.275-6.537,12.635-13.261,20.006-18.417,12.237-8.563,25.029-16.426,38.053-23.756,38.331-21.57,76.767-42.963,115.507-63.783C183.463,128.974,190.7,129.818,199.721,128.6ZM258.579,28.442c-2.076,3.733-3.113,5.277-3.84,6.955-6.373,14.724-11.669,30.021-19.241,44.1-14.781,27.478-24.115,56.89-33.275,86.433-1.428,4.607-2.547,9.7-8.633,7.9-6.471-1.916-7.439-6.8-4.812-12.966,1.7-3.98,2.382-8.391,3.922-14.092-4.03.848-6.356.857-8.2,1.8-14.385,7.373-28.834,14.644-42.961,22.49-21.551,11.969-42.215,25.754-64.471,36.171-18.646,8.727-32.445,21.475-44.144,38.4,3.757,1.543,7.357,3.128,11.032,4.513q60.957,22.968,121.93,45.894c9.235,3.482,11.434,9.816,6.287,17.822-10.4,16.177-20.142,32.834-31.406,48.386a387.226,387.226,0,0,0-45.877,83.282c-1.783,4.441-2.815,9.183-4.874,16.052,4.822-2.321,7.319-3.041,9.235-4.517,23.137-17.813,46.111-35.839,69.289-53.6,15.725-12.049,31.485-24.081,47.749-35.373,3.383-2.349,9.788-3.187,13.528-1.641a198.946,198.946,0,0,1,30.877,15.906c28.919,18.43,57.332,37.654,86.2,56.171,11.042,7.084,22.772,13.1,35.013,20.067a41.575,41.575,0,0,0-.3-4.484c-7.913-38.876-21.11-76.073-36.44-112.523-3.455-8.215-3.33-13.884,3.865-20.089,14.4-12.414,28.2-25.534,41.956-38.671,10.654-10.176,20.929-20.753,31.245-31.278,9.931-10.133,20.141-20.046,29.409-30.764,8.731-10.1,7.378-13.754-5.048-18-6.449-2.2-12.913-4.456-19.518-6.1q-51.181-12.71-102.446-25.086c-6.463-1.572-11.191-4.414-13.1-11.607-1.508-5.688-4.411-11.077-7.165-16.353-16.2-31.032-31.73-62.3-39.382-96.835C263.739,41.2,261.209,35.865,258.579,28.442Z" fill="#fff"/>
</svg>
