<?xml version="1.0" encoding="utf-8"?>
<!-- Generator: Adobe Illustrator 25.0.1, SVG Export Plug-In . SVG Version: 6.00 Build 0)  -->
<svg version="1.1" id="Layer_1" xmlns="http://www.w3.org/2000/svg" xmlns:xlink="http://www.w3.org/1999/xlink" x="0px" y="0px"
	 viewBox="0 0 32.5 31" style="enable-background:new 0 0 32.5 31;" xml:space="preserve">
<style type="text/css">
	.st0{fill:#FFFFFF;}
</style>
<g>
	<polygon class="st0" points="16.2,6.4 25.2,1.7 23.5,11.7 30.8,18.8 20.7,20.3 16.2,29.4 11.7,20.3 1.6,18.8 8.9,11.7 7.2,1.7 	"/>
	<path class="st0" d="M15.5,7.9c2.3-1.2,5.6-2.3,7.6-4c0.4-0.3,0.8-0.6,1.3-0.7c-1.5,0.2-0.4-0.7-1,0.4c-0.7,1.5-0.7,3.9-0.9,5.5
		c-0.4,2.5-1,3.2,0.4,5c1.7,2.3,4.3,4.2,6.4,6.2c0.8-1,1.6-2,2.5-3c-3.3,0.5-8.8,0.1-11.4,2.3c-2.7,2.3-4.1,7.4-5.6,10.5
		c1-0.7,1.9-1.4,2.9-2.1c-0.8-1.5-1.5-3-2.3-4.6c-0.6-1.1-1.3-3.9-2.4-4.6c-1-0.7-3.5-0.5-4.7-0.7c-1.8-0.3-3.7-0.5-5.5-0.8
		c-0.2,0.7-0.5,1.4-0.7,2.1c2.2-2.2,6.9-5.1,8.1-8.1c1.1-2.8-1-7.9-1.5-10.9l-3,2.7c3,1.6,6,3.2,9,4.7c1.2,0.6,3.7-2.6,2.9-2.9
		c-3-1.6-6-3.2-9-4.7c-1.1-0.6-3.2,1.7-3,2.7c0.6,3.3,1.1,6.7,1.7,10c0.3-0.6,0.7-1.2,1-1.8c-2.4,2.4-4.9,4.7-7.3,7.1
		c-0.2,0.2-1.7,2-0.7,2.1c1.7,0.2,3.4,0.5,5,0.7c1.1,0.2,4,0.1,4.9,0.7c0.9,0.7,1.7,3.4,2.2,4.5c0.8,1.5,1.5,3,2.3,4.6
		c0.5,1,2.7-1.8,2.9-2.1c1.5-3,3-6.1,4.5-9.1c-0.8,0.7-1.6,1.5-2.4,2.2c3.4-0.5,6.7-1,10.1-1.5c0.7-0.1,3.3-2.2,2.5-3
		c-1.7-1.7-6.6-5.1-7.2-6.9c-0.6-1.7,1.3-7.4,1.7-9.8c0.1-0.6-0.5-0.7-0.9-0.4c-3,1.6-6,3.2-9,4.7C15.9,5.5,13.7,8.8,15.5,7.9z"/>
</g>
</svg>
