<svg xmlns="http://www.w3.org/2000/svg" width="566.929" height="449.672" viewBox="0 0 566.929 449.672">
  <g>
    <path d="M566.862,163.079c-.019-9.423-1.971-18.976-.96-28.241,2.329-21.34-1.932-41.3-10.1-60.692-5.515-13.1-11.431-26.031-22.949-35.269-12.024-9.643-22.587-20.725-38.4-25.655-9.1-2.836-17.646-6.026-27.017-4.765a202.436,202.436,0,0,0-29.151,5.784c-16.709,4.824-28.718,14.02-33.53,32.535-5.007,19.263-12.51,37.943-19.848,56.512-5.538,14.018-12.754,27.364-18.822,41.184-6.163,14.039-10.674,28.923-17.946,42.332-19.949,36.783-28.836,76.28-29.981,117.553-.568,20.467,1.5,41.022,2.8,61.51.22,3.462,2.6,6.787,4.5,11.442-.4,1.486-1.991,4.09-1.578,6.324,3.811,20.608,9.778,39.945,30.207,50.9,4.824,2.588,8.342,7.712,13.234,10.046,5.627,2.685,13.255,6.458,17.972,4.593,8.233-3.254,14.9-10.465,22.232-16.008,2.4-1.813,4.635-3.935,7.256-5.334,11.119-5.934,23.521-10.167,33.253-17.82,12.105-9.519,22.35-21.511,32.839-32.949a225.95,225.95,0,0,0,39.046-57.833c4.519-9.745,10.455-18.755,21.623-23.343,3.534-1.451,6.586-7.489,7.233-11.821,1.2-8.049-.836-16.658.8-24.553,4.781-23.117,11.163-45.9,15.946-69.02C567.348,181.635,566.882,172.232,566.862,163.079ZM438.053,346.49a51.33,51.33,0,0,0-6.507,18.83c-1.379,9.42-7.048,16.874-18.12,18.7,4.342-11.1,7.3-21.828,12.562-31.273,6.025-10.812,13.867-20.66,21.449-30.521,1.794-2.333,5.7-3.041,8.634-4.5l1.211,2.095C450.8,328.67,443.724,337.154,438.053,346.49Zm85.4-150.739c-.792,5.375-4.246,7.3-9.668,6.836-10.088-.872-20.131-1.486-29.412,4.263-6.755,4.184-13.592,8.547-20.95,11.381-16.36,6.3-28.341,17.715-39.994,30.247-13.544,14.565-23.289,31.373-32.553,48.675-4.54,8.481-9.805,16.57-14.508,24.968-3.109,5.552-5.732,11.375-8.721,17a45.439,45.439,0,0,1-3.629,5.076l-2.312-.933c-.564-8.661-1.558-17.32-1.61-25.984-.147-24.386.135-48.854,7.277-72.421,3.619-11.94,8.846-23.419,13.716-34.95,8.361-19.8,16.945-39.507,25.586-59.187,2.276-5.182,5.679-9.914,7.582-15.206L450.821,61.55c9.434-11.942,25.693-13.754,38.095-4.827,24.062,17.32,33.657,41.826,34.785,70.406q1.018,25.851,1.279,51.73A108.409,108.409,0,0,1,523.45,195.751Z" fill="#ffe313"/>
    <path d="M246.253,97.584c-.194-12.866-4.15-25.2-11.83-34.931-13.775-17.455-25.758-36.8-44.991-49.342C178.049,5.89,166.111.168,152.031.006c-22.656-.26-42.93,7.536-62.858,17.246C77.4,22.986,67.735,32.62,54.13,35.18c-3.281.617-6.483,5.323-8.369,8.868-3.2,6.015-5.356,12.591-7.9,18.95-7.8,19.495-16.823,38.615-23.01,58.612C9.1,140.2,5.751,159.616,2.554,178.87A222.069,222.069,0,0,0,.005,216.256c.151,29.294,7.7,57.5,13.988,85.856,1.683,7.59,2.816,15.573,6.091,22.48,6.244,13.169,13.991,25.618,20.839,38.511a39.216,39.216,0,0,0,21.356,18.606c10.762,4.014,22.018,7.407,33.353,9.033,22.163,3.181,42.29-4.55,59.394-17.537,17.7-13.44,28.3-33.383,39.473-52.24,13.78-23.261,23.725-48.255,31.008-74.331,2.152-7.707,6.632-14.9,7.959-22.677,4.953-29.039,15.165-57.332,12.83-83.674C246.3,123.547,246.448,110.563,246.253,97.584ZM170.046,278.3c-2.675-.97-5.043-1.338-6.79-2.58-2.445-1.738-5-3.791-6.481-6.312a85.276,85.276,0,0,1-6.385-13.93c-1-2.729-2.124-6.3-1.173-8.7A314.5,314.5,0,0,1,162.6,217.192c2.958-5.659,5.845-5.186,8.546.879a46.638,46.638,0,0,1,2.83,9.848c1.538,7.732,2.92,15.5,4.218,23.274C179.933,261.639,173.637,269.538,170.046,278.3ZM204.31,118.455c-.72,4.981.28,12.288-2.6,14.477-7.622,5.8-16.273,10.627-27.169,8.869a29.04,29.04,0,0,0-16.013,2.338,206.323,206.323,0,0,0-29.474,16.717c-4.612,3.176-8.282,8.478-10.968,13.563-10.936,20.7-16.316,43.111-19.055,66.248-2.207,18.645-4.977,37.23-6.821,55.908-1.649,16.687.113,33.073,8.513,48.8-10.976,2.729-19.842-1.212-25.66-8.808C54.442,309.637,48.936,277.53,43.01,245.5c-8.213-44.39.941-86.759,14.3-128.8,3.169-9.979,11.482-13.72,18.921-17.8,5.3-2.9,7.451-6.5,9.346-11.332,6.163-15.717,15.379-29.205,29.6-38.7,13.916-9.293,47.774-10.158,60.66,6.5,9.178,11.868,20.566,22.1,25.456,36.676,2.276,6.787,2.478,14.283,3.455,21.48A18.287,18.287,0,0,1,204.31,118.455Z" fill="#ffe313"/>
  </g>
</svg>
