<svg xmlns="http://www.w3.org/2000/svg" width="566.929" height="482.112" viewBox="0 0 566.929 482.112">
  <g>
    <path d="M206.822,294.611c-3.036-1.147-5.532-2.031-7.982-3.028-5.49-2.234-10.923-4.611-16.448-6.754a42.986,42.986,0,0,0-7.8-2.217c-2.318-.421-11.557-4.981-13.394-5.922-2.436-1.248-4.651-3.03-7.191-3.938-2.776-.993-17.218-9.047-20.069-10.262-5.989-2.553-33.653-17.105-41.589-21.6-11.463-6.5-23.052-12.775-34.667-19-4.9-2.622-42.7-31.788-45.088-33.56a7.664,7.664,0,0,1-1.864-2.146c-1.707-2.782-3.055-5.834-5.062-8.371A27.016,27.016,0,0,1,.613,169.06c-1.979-6.305.915-11.181,7.516-12,6.66-.83,13.322-1.649,19.971-2.565a21.021,21.021,0,0,0,4.2-1.211,10.646,10.646,0,0,1,6.78-.1c2.891.764,6.185.442,9.24.068,10.878-1.329,21.69-3.516,32.6-4.185,13.444-.824,26.96-.453,40.446-.6,9.394-.1,18.807.094,28.173-.479,2.937-.18,18.709-.138,20.805-.182,20.154-.415,40.307-.946,60.464-1.075,8.695-.055,17.395.781,26.1,1.153a49.631,49.631,0,0,0,6.442-.111c2.619-.229,4.418-1.8,5.874-3.935,2.812-4.116,5.634-8.23,8.616-12.222,4.742-6.347,9.674-12.551,14.423-18.892,5.335-7.123,10.456-14.408,15.852-21.484,6.35-8.325,12.709-16.656,19.4-24.706C337.883,54.056,348.46,41.744,359.1,29.5c4.868-5.6,10.18-10.816,15.142-16.34,2.535-2.823,4.741-5.943,7.1-8.926a3.509,3.509,0,0,1,.594-.65C389-1.754,391.843-1.3,395.366,6.1c4.961,10.417,6.56,21.727,6.561,33.146,0,15.458-.788,30.917-.712,46.373.058,11.73.736,23.471,1.518,35.181.613,9.175,1.619,18.335,2.8,27.457,1.23,9.508,2.815,18.972,4.408,28.428.241,1.434,6.3,17.377,8.647,17.768,11.956,1.993,23.9,4.058,35.819,6.272,2.9.539,10.883-.039,12.015.183,7.369,1.448,14.711,3.039,22.1,4.392,1.745.32,14.126,2.993,14.9,3.221,7.942,2.332,15.922,4.531,23.859,6.877,2.989.883,5.827,2.37,8.855,3.014,4.951,1.054,10.007,1.607,15.007,2.437,5.406.9,10.289,2.809,13.99,7.136,1.978,2.313,2.171,4.491,1.322,7.517-1.41,5.024-4.733,7.518-9.149,9.418-1.742.749-3.022,2.528-4.739,3.385-5.5,2.745-11.116,5.253-16.665,7.9-7.921,3.778-15.8,7.649-23.739,11.386-7.959,3.746-15.81,7.8-24,10.969-17.026,6.593-34.361,12.4-51.329,19.126-8.043,3.191-15.418,8.026-23.327,11.608-3.966,1.8-5.837,5.134-8.448,8.082-2.782,3.142-3.277,5.533-1.565,9.786,4.893,12.152,8.74,24.72,13.144,37.073q7.635,21.417,15.528,42.74c2.832,7.694,5.906,15.3,8.731,23q2.82,7.684,5.208,15.525A51.656,51.656,0,0,1,447.3,452.4c.971,6.065,2.12,12.111,2.805,18.208a19.819,19.819,0,0,1-.915,7.184c-.9,3.307-4.09,4.779-7.395,4.16-4.9-.918-7.688-4.239-10.493-7.985a50.885,50.885,0,0,0-8.544-8.8c-10.688-8.714-21.628-17.117-32.348-25.792-5.933-4.8-11.668-9.852-17.4-14.891-7.118-6.255-14.1-12.665-21.223-18.916-8.753-7.681-17.449-15.437-26.427-22.849-9.649-7.966-19.6-15.568-29.409-23.339-.688-.545-1.3-1.186-1.962-1.763-4.633-4.037-6.217-4.056-11.023.318-4.166,3.79-7.437,8.549-11.247,12.749q-13.2,14.549-26.547,28.954c-4.526,4.877-9.061,9.77-13.9,14.327-6.751,6.353-13.8,12.393-20.707,18.575-5.241,4.687-10.451,9.408-15.713,14.071-2.121,1.879-4.415,3.566-6.5,5.486a22.506,22.506,0,0,0-3.6,4.131,8.93,8.93,0,0,1-12.727,2.7,7.247,7.247,0,0,0-5.342-.977c-3.967,1.286-7.6,1.022-10.141-2.181-2.624-3.312-4.423-6.947-3.4-11.577,2.795-12.7,4.922-25.557,8.117-38.149a160.851,160.851,0,0,1,14.274-35.957c2.3-4.311,4.314-8.771,6.4-13.19,4.035-8.541,8.37-16.962,11.943-25.693,3.693-9.026,6.64-18.358,9.889-27.564C204.858,300.531,205.881,297.394,206.822,294.611Z" fill="#ffe313"/>
    <path d="M443.059,478.584l-.588,3.528" fill="#ffe313"/>
  </g>
</svg>
