<svg xmlns="http://www.w3.org/2000/svg" width="484.411" height="501.426" viewBox="0 0 484.411 501.426">
  <path d="M224.63,430.907c-11.637-21.714-21.59-44.343-31.867-66.763-3.182-6.941-7.044-10.909-15.357-10.24-33.038,2.657-66.114,4.825-99.161,7.377-9.778.755-19.488,2.7-29.265,3.014-3.456.112-46.525,1.874-48.237-.885-5.776-9.308,23.922-45.058,27.281-48.2,24.627-23.058,50.044-45.269,75-67.976a285.429,285.429,0,0,0,22.1-22.453c1.714-1.947,2.2-6.613,1.126-9.123C115.207,189.808,104,164.02,92.174,138.524c-2.889-6.227-8.648-11.057-12.312-17.008-4.86-7.9-9.949-15.889-13.162-24.5-5.455-14.629-10.9-36.547,2.062-41.59,9.612-3.738,41.98,7.845,53.664,18.707A97.982,97.982,0,0,0,134.85,84.257q14.474,9.573,29.421,18.425c13.311,7.883,26.975,15.18,40.166,23.254,5.571,3.411,9.216,2.706,13.026-2.267,21.566-28.149,43.292-56.175,64.825-84.35,2.734-3.578,4.753-7.724,6.932-11.7C295.079,16.925,320.235-4.015,334.579.674c8.533,2.789,10.508,25.761,8.956,34.694-3.324,19.136-8.184,38.031-10.92,57.237-4.082,28.653-6.874,57.489-10.208,86.248a6.114,6.114,0,0,0-.032,1.7c1.287,7.584-7.66,16.126,1.577,22.8,6.382,4.61,13.514,8.173,20.222,12.346,24.3,15.118,48.72,30.058,72.787,45.543,13.5,8.688,26.17,18.674,39.636,27.424,16.211,10.532,39.179,26.538,21.336,42.657C469.62,338.834,406.78,341.59,393.3,342c-19.136.584-38.263,1.759-57.363,3.1-11.567.814-23.087,2.357-34.6,3.767-1.5.185-3.7,1.2-4.166,2.387-3.669,9.32,4.018,112.437-1.465,130.584-.565,1.871-12,11.6-12.973,16.043C278.255,518.361,231.586,443.887,224.63,430.907Z" fill="#ffe313"/>
</svg>
