<?xml version="1.0" encoding="UTF-8"?>
<svg id="Layer_1" data-name="Layer 1" xmlns="http://www.w3.org/2000/svg" version="1.1" viewBox="0 0 513.1 353.3">
  <defs>
    <style>
      .cls-1 {
        fill: #231f20;
        stroke-width: 0px;
      }
    </style>
  </defs>
  <path class="cls-1" d="M123.1,165.2c11,0,22,.4,33,0,20.6-.9,41.1-2.8,61.7-3.5,37.5-1.2,75.1.6,112.5-4.6,27.3-3.8,54.7-6.9,82-9.8,11.3-1.2,22.7-.8,34-1.9,14.7-1.5,29.4-3.7,44.1-6,9.6-1.5,20.2,7.9,22.4,17.1,2.4,10.3-5.9,21.2-15.2,25.2-12.9,5.5-25.9,3.2-39,4.1-28.1,2-56.2,5.4-84.2,8.2-12.2,1.3-24.4,2.9-36.6,4-22.6,2-45.2,4.1-67.9,5.3-19.3,1-38.7.5-58,1.3-21.9.9-43.8,2.1-65.7,3.7-16.1,1.2-32.2,3.2-48.3,4.5-5.6.4-11.7,4.2-15.6,7.1,3.4,3.2,16.3,12.1,20.2,13.4,27,8.7,30.6,14.5,58.1,21.5,14.8,3.8,29.1,7.7,41.9,15.9,6.1,3.9,11.4,9,17.6,12.7,9.9,5.9,20.1,11.3,30.4,16.5,9.1,4.6,19,7.7,27.4,13.3,5.5,3.7,9.6,9.2,11.7,15.4,2.1,7.1-3.9,12.4-9.6,16.6-11,8-23.6,10.3-36.1,6.6-11.4-3.3-22.3-8.3-32.4-14.7-15.8-10.3-29.8-23.6-45.9-33.3-12.8-7.7-27.4-13-41.8-17.2-24.5-7-49.6-12.1-74.3-18.5-5.8-1.4-11.2-4.1-15.8-7.9-10.9-9.3-21.3-19.2-31-29.7-2.6-2.8-3.2-9.5-1.9-13.5,2.7-8.3,5.3-17.2,14.4-21.5,4.2-2,9.2-3.1,12.4-6.1,14.7-13.7,28.5-28.3,43.4-41.8,10-9.2,20.7-17.4,32.2-24.7,20.2-12.4,36.8-27.4,49.1-48.2,9.8-16.7,23-31.4,34.8-47,3.8-5,7.7-9.8,11.7-14.6,7.8-9.4,19-14.1,30.1-12.9,8.4.9,18,6.3,23.9,12.7,9.8,10.7,5.1,28-9.6,35.5-12,6.1-18.9,15.5-25.1,26.4-2.2,4-5.5,7.3-8.2,11-4.2,5.7-8.9,11.1-12.4,17.1-10,16.9-24.8,28.8-40.9,39.2-11,7.2-22.7,13.4-34,20.1l.7,3.1Z"/>
</svg>