<?xml version="1.0" encoding="utf-8"?>
<!-- Generator: Adobe Illustrator 25.0.1, SVG Export Plug-In . SVG Version: 6.00 Build 0)  -->
<svg version="1.1" id="Layer_1" xmlns="http://www.w3.org/2000/svg" xmlns:xlink="http://www.w3.org/1999/xlink" x="0px" y="0px"
	 viewBox="0 0 18 17" style="enable-background:new 0 0 18 17;" xml:space="preserve">
<g>
	<path d="M10.9,8.7c-1.8,0-3.5,0-5.3,0C4.2,8.7,2.8,8.9,1.4,9C1.1,9,0.8,8.9,0.6,8.7C0.4,8.5,0.4,8.2,0.4,8c0-0.1,0.3-0.3,0.5-0.3
		c3.6-0.1,7.2-0.2,10.7-0.3c0.1,0,0.2,0,0.3-0.1c-0.1-0.1-0.3-0.1-0.4-0.2c-0.9-0.3-1.9-0.7-2.7-1.2c-1-0.6-1.7-1.6-2-2.8
		C6.6,2.2,7.1,1.2,7.9,0.8c0.4-0.3,0.9-0.5,1.5-0.5c0.7-0.1,1.3,0.2,1.7,0.8s0.4,1.3,0,1.9c-0.1,0.2-0.4,0.3-0.6,0.3
		c-0.1,0-0.3-0.3-0.3-0.5c0-0.1,0-0.3,0.1-0.4c0.1-0.6,0-0.8-0.6-0.8C8.9,1.4,8.3,1.7,7.9,2.3c-0.2,0.6,0,1.2,0.4,1.6
		c0.6,0.7,1.3,1.2,2.1,1.5c1.1,0.5,2.3,0.8,3.6,1c0.9,0.1,1.9,0.3,2.8,0.4c0.7,0.1,1,0.3,0.9,0.7c0,0.6-0.3,0.8-0.9,0.9
		c-1.5,0.3-3,0.5-4.4,0.9c-1.5,0.4-2.8,1.1-3.9,2.2c-0.6,0.6-1,1.3-1.2,2.1c-0.1,0.6,0.1,1.2,0.5,1.5c0.5,0.4,1.2,0.4,1.8,0.1
		c0.4-0.1,0.6-0.6,0.5-1c0-0.1-0.1-0.3-0.2-0.3c-0.2-0.2-0.3-0.5-0.1-0.8c0,0,0,0,0.1-0.1c0.3-0.2,0.8-0.1,1,0.2
		c0.6,0.8,0.5,1.9-0.2,2.6C10,16.7,8.9,17,7.9,16.6s-1.6-1.4-1.6-2.4c0-0.9,0.3-1.9,0.8-2.6c0.8-1.2,2-2.1,3.3-2.6
		C10.6,8.9,10.7,8.8,10.9,8.7z"/>
</g>
</svg>
