<?xml version="1.0" encoding="utf-8"?>
<!-- Generator: Adobe Illustrator 25.0.1, SVG Export Plug-In . SVG Version: 6.00 Build 0)  -->
<svg version="1.1" id="Layer_1" xmlns="http://www.w3.org/2000/svg" xmlns:xlink="http://www.w3.org/1999/xlink" x="0px" y="0px"
	 viewBox="0 0 46.7 43.9" style="enable-background:new 0 0 46.7 43.9;" xml:space="preserve">
<style type="text/css">
	.st0{fill:#FFFFFF;}
</style>
<g>
	<path class="st0" d="M28.5,22.5c-4.6,0-8.9,0-13.5,0c-3.6,0-7.1,0.5-10.7,0.8c-0.8,0-1.5-0.3-2-0.8c-0.5-0.5-0.5-1.3-0.5-1.8
		c0-0.3,0.8-0.8,1.3-0.8c9.1-0.3,18.3-0.5,27.2-0.8c0.3,0,0.5,0,0.8-0.3c-0.3-0.3-0.8-0.3-1-0.5c-2.3-0.8-4.8-1.8-6.9-3
		c-2.5-1.5-4.3-4.1-5.1-7.1c-0.5-2.3,0.8-4.8,2.8-5.8c1-0.8,2.3-1.3,3.8-1.3c1.8-0.3,3.3,0.5,4.3,2c1,1.5,1,3.3,0,4.8
		c-0.3,0.5-1,0.8-1.5,0.8c-0.3,0-0.8-0.8-0.8-1.3c0-0.3,0-0.8,0.3-1c0.3-1.5,0-2-1.5-2c-2-0.5-3.6,0.3-4.6,1.8c-0.5,1.5,0,3,1,4.1
		c1.5,1.8,3.3,3,5.3,3.8c2.8,1.3,5.8,2,9.1,2.5c2.3,0.3,4.8,0.8,7.1,1c1.8,0.3,2.5,0.8,2.3,1.8c0,1.5-0.8,2-2.3,2.3
		c-3.8,0.8-7.6,1.3-11.2,2.3c-3.8,1-7.1,2.8-9.9,5.6c-1.5,1.5-2.5,3.3-3,5.3c-0.3,1.5,0.3,3,1.3,3.8c1.3,1,3,1,4.6,0.3
		c1-0.3,1.5-1.5,1.3-2.5c0-0.3-0.3-0.8-0.5-0.8c-0.5-0.5-0.8-1.3-0.3-2c0,0,0,0,0.3-0.3c0.8-0.5,2-0.3,2.5,0.5
		c1.5,2,1.3,4.8-0.5,6.6c-1.8,2.3-4.6,3-7.1,2c-2.5-1-4.1-3.6-4.1-6.1c0-2.3,0.8-4.8,2-6.6c2-3,5.1-5.3,8.4-6.6
		C27.7,23,27.9,22.8,28.5,22.5z"/>
</g>
</svg>
